<svg xmlns="http://www.w3.org/2000/svg" viewBox="0 0 18.27305 18.27312"><defs><style>.cls-1{fill:#f44336;}.cls-2{fill:#ffc107;}.cls-3{fill:#4caf50;}.cls-4{fill:#2196f3;}.cls-5{fill:#fafafa;}</style></defs><title>chrome_logo</title><g id="Layer_2" data-name="Layer 2"><g id="Home"><path class="cls-1" d="M17.60306,5.71085H9.13688a3.426,3.426,0,0,0-2.99209,5.101L1.91172,3.54861A9.13081,9.13081,0,0,1,17.60306,5.71085Z"/><path class="cls-2" d="M18.273,9.13691a9.1438,9.1438,0,0,1-9.13616,9.13615,8.14761,8.14761,0,0,1-1.142-.07612l4.11127-7.347a3.43442,3.43442,0,0,0-1.25622-4.68228,3.39413,3.39413,0,0,0-1.70543-.45681H17.603A9.00812,9.00812,0,0,1,18.273,9.13691Z"/><path class="cls-3" d="M12.10613,10.84994l-4.11127,7.347h-.0076A9.13085,9.13085,0,0,1,1.91172,3.54861l4.23307,7.26325.02284.03808a3.42605,3.42605,0,0,0,5.9385,0Z"/><path class="cls-1" d="M12.10613,10.84994a3.42605,3.42605,0,0,1-5.9385,0l-.02284-.03808a3.42609,3.42609,0,0,1,2.99209-5.101h.0076a3.39423,3.39423,0,0,1,1.70543.45681A3.43446,3.43446,0,0,1,12.10613,10.84994Z"/><path class="cls-4" d="M12.10613,10.84994a3.42605,3.42605,0,0,1-5.9385,0l-.02284-.03808a3.42609,3.42609,0,0,1,2.99209-5.101h.0076a3.39423,3.39423,0,0,1,1.70543.45681A3.43446,3.43446,0,0,1,12.10613,10.84994Z"/><path class="cls-5" d="M9.124,12.94365a3.77926,3.77926,0,0,1-1.89043-.50706,3.8099,3.8099,0,1,1,5.203-1.39629h0A3.82808,3.82808,0,0,1,9.124,12.94365Zm.01977-6.85212a3.04689,3.04689,0,1,0,2.632,4.56812h0A3.04538,3.04538,0,0,0,9.14448,6.09157H9.14373Z"/></g></g></svg>