<svg xmlns="http://www.w3.org/2000/svg" viewBox="0 0 11.7766 12.5617"><defs><style>.cls-1{fill:#a9bdd3;}</style></defs><title>ic_download</title><g id="Layer_2" data-name="Layer 2"><g id="Select"><path class="cls-1" d="M8.99339,5.72578a.39156.39156,0,0,0-.35722-.23H7.066V.39255A.3927.3927,0,0,0,6.67341,0H5.10319a.39269.39269,0,0,0-.39255.39255v5.1032H3.14043a.39236.39236,0,0,0-.2952.65085L5.5931,9.287a.39168.39168,0,0,0,.5904,0L8.93137,6.1466A.39135.39135,0,0,0,8.99339,5.72578Z"/><path class="cls-1" d="M10.20638,8.63617v2.35532H1.57021V8.63617H0V11.7766a.78489.78489,0,0,0,.78511.7851H10.99149a.78439.78439,0,0,0,.78511-.7851V8.63617Z"/></g></g></svg>