<svg xmlns="http://www.w3.org/2000/svg" viewBox="0 0 9.17936 8.16669"><defs><style>.cls-1{fill:#3a4249;}</style></defs><title>ic_heart</title><g id="Layer_2" data-name="Layer 2"><g id="Home"><path class="cls-1" d="M8.45116.79922A2.4683,2.4683,0,0,0,6.61511,0,2.30927,2.30927,0,0,0,5.17278.49786a2.951,2.951,0,0,0-.5831.60887A2.94936,2.94936,0,0,0,4.00652.49786,2.30894,2.30894,0,0,0,2.56426,0,2.46847,2.46847,0,0,0,.72813.79922,2.86928,2.86928,0,0,0,0,2.75867,3.41661,3.41661,0,0,0,.91043,4.9951a19.41256,19.41256,0,0,0,2.279,2.13909c.31578.26914.67372.5742,1.04539.89915a.53885.53885,0,0,0,.70957.00014c.37166-.325.72981-.63022,1.04573-.8995A19.4039,19.4039,0,0,0,8.269,4.995,3.41623,3.41623,0,0,0,9.17936,2.7586,2.869,2.869,0,0,0,8.45116.79922Z"/></g></g></svg>