<svg xmlns="http://www.w3.org/2000/svg" viewBox="0 0 10.99149 10.99315"><defs><style>.cls-1{fill:#a9bdd3;}</style></defs><title>ic_link</title><g id="Layer_2" data-name="Layer 2"><g id="Select"><path class="cls-1" d="M6.70664,4.28486a2.49381,2.49381,0,0,0-.43048-.34622,2.565,2.565,0,0,0-3.19661.34622L.74942,6.61682a2.56474,2.56474,0,0,0,3.62526,3.62891L6.29814,8.32227A.18319.18319,0,0,0,6.16807,8.009H6.0948a3.08311,3.08311,0,0,1-1.17238-.22714.18319.18319,0,0,0-.19967.04029L3.33969,9.20706A1.09973,1.09973,0,0,1,1.78444,7.65181L4.12373,5.31436a1.09913,1.09913,0,0,1,1.55343,0,.75107.75107,0,0,0,1.0295,0,.72561.72561,0,0,0,0-1.0295Z"/><path class="cls-1" d="M10.2403.75119a2.56475,2.56475,0,0,0-3.62709,0L4.69158,2.671a.1839.1839,0,0,0,.13372.31325h.06777a3.07733,3.07733,0,0,1,1.17056.229.18319.18319,0,0,0,.19967-.04029L7.64269,1.79536A1.09973,1.09973,0,0,1,9.198,3.35061L7.47965,5.06706,7.465,5.08355l-.60085.59719a1.09911,1.09911,0,0,1-1.55342,0,.75107.75107,0,0,0-1.0295,0,.73035.73035,0,0,0,0,1.03317,2.54288,2.54288,0,0,0,.73273.51292c.03847.01831.07694.033.11541.04946s.07876.0293.11723.044.07877.02748.11724.03847l.10808.0293c.07327.01831.14656.033.22165.04579a2.54962,2.54962,0,0,0,.273.02565h.13921l.10991-.01281c.0403-.00183.08244-.011.13007-.011H6.408l.1264-.01831.05862-.011.10624-.022h.02016a2.56426,2.56426,0,0,0,1.18887-.67413l2.332-2.33195A2.56469,2.56469,0,0,0,10.2403.75119Z"/></g></g></svg>